<svg xmlns="http://www.w3.org/2000/svg" viewBox="20 101.03325716057597 535 372.93312531817105"><rect height="100%" width="100%" x="20" y="101.03325716057597" fill="rgba(255, 255, 255, 1)"/> <svg xmlns="http://www.w3.org/2000/svg" xmlns:xlink="http://www.w3.org/1999/xlink" version="1.1" id="Layer_1" x="222.39535017142822" y="171.03325716057597" viewBox="5.110386848449707 5.065491676330566 160.41140747070312 184.4224090576172" xml:space="preserve" height="149.70031067621107" width="130.2099850230566" preserveAspectRatio="xMinYMin" enable-background="new 0 0 170.4 194.3" style="overflow: visible;"><path d="M138.3,83.2c-0.3-1.1-0.4-2.2,0.2-3.2c1.1-2.1,0.8-4-0.1-5.9c-0.9-1.8,0.8-4.6-0.5-6.2c-1.3-1.9-2-3.9-1.8-6.2  c0.1-1.3-0.3-2.5-0.9-3.7c-1.4-2.5-1.6-5.3-1.2-8.2c0.1-0.4-1.7-4.2-3-7.1c-0.2-1.4-0.9-2.9-1.9-4.4c-0.9-1.4-1.7-2.8-2.6-4.1  c-1.5-2.2-3-4.4-5.2-5.9c-3.9-2.8-7.2-6.2-10.5-9.7c-1.7-1.7-2.8-4.2-5.3-5.1c-6.4-2.1-12.7-4.5-19-6.7c-5.2-1.8-10.9-1.8-16.4-1.7  c-5.5,0.2-10.6,2-15.2,5.4c-5.2,3.8-11.3,6.3-15.3,11.6c-0.1,0.2-0.4,0.4-0.6,0.5c-5.7,3.5-10.3,8.1-13.5,14.1  c-1.7,3.1-4.3,5.5-5.8,8.9c-1.9,4.5-4,8.9-4.3,13.9c-0.2,2.8-0.9,5.4-2.6,7.7c-1,1.4-1.4,2.9-1.7,4.5c-0.6,3.5-1.8,6.9-1.7,10.5  c0,1.6-0.4,3.2-1,4.7c-1.1,2.6-1.2,5.2-1.3,7.9c-0.1,4,0.6,8.2-1.7,12c-0.5,0.8-0.3,1.9,0.2,2.9c1.6,3.1,2.9,6.3,2.6,10  c0,0.9,0.2,1.8,0.5,2.6c1.4,4.1,2.5,8.3,3.3,12.6c0.3,1.2,0.5,2.5,1.1,3.5c2.8,4.8,4.8,10.2,8.3,14.7c2.2,2.9,5.3,5.1,7,8.3  c1.7,3.3,4,5.5,7.1,7.6c5,3.3,9.4,7.6,14.4,11.2c3,2.1,6.1,3.9,9.5,4.8c2.6,0.7,5.4,0.7,8,1.2c2.4,0.5,4.8,0.9,7,2.3  c2.1,1.3,4.6,1.3,7,0.1c3-1.6,6.4-2.3,9.7-2.5c5.1-0.3,9.5-2.7,14.2-3.9c0.3-0.1,0.5-0.4,0.8-0.6c2.4-2,4.3-4.4,6.1-7  c4.4-6.4,8.1-13.2,13-19.2c1.8-2.3,3.7-4.7,3.6-7.9c0-0.9,0.6-1.5,1.2-2.1c1.5-1.3,2.3-3,2.6-4.9c0.7-3.8,1.6-7.5,2.2-11.3  c1-5.9,1.4-11.9,2.9-17.7c0.3-0.9,0.3-2.1,0.1-3c-0.8-3.3-0.4-6.7-0.4-10.9C137.2,95.9,139.5,87.6,138.3,83.2z M113.2,89.6  c-0.4,1.6-1.2,9.7-0.8,11.1c0.4,1.3-2.4,12-2.9,13.3c-1.4,3.8-1.2,8.2-4.5,11.1c-0.2,0.2-0.3,0.6-0.4,0.9c-1,5-3,9.5-6.2,13.4  c-1.8,2.3-2.9,5.3-5.8,6.3c-2.6,0.9-4,2.7-5,5.1c-0.6,1.4-1.6,2.3-3.1,2.7c-2.1,0.5-4.3,1.2-6.4,1.8c-0.9,0.3-1.9,0.3-2.8,0.1  c-5-1.2-9.7-3.2-14.3-5.4c-1.2-0.6-2.1-1.4-2.7-2.8c-0.9-1.9-1.7-4.1-3.4-5.4c-3.2-2.4-5.4-5.7-8.5-8.1c-2.5-2-4.8-4.5-3.8-8.1  c1.2-4.3-0.4-7.3-3.6-9.9c-0.1-0.1-0.3-0.2-0.4-0.4c-1.5-1.6-2.1-3.3-1.4-5.5c1-2.9,0.8-5.8-0.3-8.7C36.1,99,36,96.9,36,94.7  c0.1-4.6,1.8-8.9,2.2-13.5c0.2-2.5,0.7-4.9,2.3-6.7c2.5-2.8,2.9-6.3,3.5-9.7c0.1-0.6,0.2-1.3,0.7-1.8c1.9-1.8,3.2-4,4.6-6.1  c2.5-3.6,5.1-7,7.6-10.5C60,42,64,38.9,69.4,37.5c3.1-0.8,6.2-1.9,9.3-2.8c0.8-0.2,1.6-0.6,2.4-0.3c2.8,1.1,5.8,1.6,8.8,2.2  c0.8,0.2,1.7,0.6,2.3,1.2c1.4,1.3,3.1,1.9,4.9,2.2c1.6,0.3,3,0.9,4.3,2c0.8,0.7,2,2.3,3.2,3.3c1.1,1,1.5,3.9,2.2,4.5  c1.7,1.5,2,6.3,1.2,9.2c-0.7,2.6-0.4,4.6,1.8,6.4c1.6,1.3,0.7,11,2.4,12C113.8,78.4,113.5,88.4,113.2,89.6z" style="fill: #188FFF; fill-opacity: 1;"></path><path d="M162.8,155.6c0.2,0.6,0.4,0.9,0.3,1.1c-0.2,3.4,2.7,6,2.4,9.4c-0.2,2.2-2.3,5-0.9,7c0.9,1.2,0.8,2.7-0.1,4  c-1.2,1.9-2.3,3.8-3.6,5.6c-0.9,1.3-2.3,1.7-3.8,1.4c-2-0.4-3.9,0-5.7,0.8c-1.6,0.7-3.4,0.8-5.1,1c-3.5,0.4-1.9-2.3-5.2-1  c-4.1,1.7-6.3,0.1-6.2-4.4c0-2.3-2.6-4.8-2.8-5.9c-0.3-1.7-0.9-3.4-1.6-5c-1.7-4.1,0.1-8.8,3.4-10.9c2.3-1.5,4.8-5.1,7.2-6.6  c3.4-2.1,7.2-0.2,10.7-1.8c1-0.4,2.1-0.2,3,0.1C158,151.5,161,153,162.8,155.6z" style="fill: #188FFF; fill-opacity: 1;"></path></svg> <svg xmlns="http://www.w3.org/2000/svg" y="389.74638316539256" viewBox="0.8799999952316284 6.610000133514404 299 14.219999313354492" x="137.99997163032822" height="14.219999313354492" width="299" style="overflow: visible;"><g fill="#188fff" style=""><path d="M7.15 20.58L5.40 20.58L5.40 8.32L0.88 8.32L0.88 6.86L11.67 6.86L11.67 8.32L7.15 8.32L7.15 20.58ZM15.96 20.58L14.20 20.58L14.20 6.86L15.96 6.86L15.96 12.61L21.69 12.61L21.69 6.86L23.45 6.86L23.45 20.58L21.69 20.58L21.69 14.12L15.96 14.12L15.96 20.58ZM36.19 20.58L27.48 20.58L27.48 6.86L35.98 6.86L35.98 8.32L29.24 8.32L29.24 12.63L34.93 12.63L34.93 14.12L29.24 14.12L29.24 19.10L36.19 19.10L36.19 20.58ZM41.48 20.58L39.74 20.58L39.74 6.86L44.01 6.86Q45.41 6.86 46.49 7.23Q47.56 7.59 48.18 8.44Q48.80 9.29 48.80 10.71L48.80 10.71Q48.80 12.09 48.18 12.99Q47.56 13.89 46.49 14.34Q45.41 14.79 44.01 14.79L44.01 14.79L41.48 14.79L41.48 20.58ZM41.48 8.26L41.48 13.37L43.76 13.37Q45.37 13.37 46.21 12.71Q47.06 12.05 47.06 10.71L47.06 10.71Q47.06 9.37 46.21 8.82Q45.37 8.26 43.76 8.26L43.76 8.26L41.48 8.26ZM47.23 20.58L43.65 14.31L45.03 13.39L49.22 20.58L47.23 20.58ZM52.65 20.58L50.87 20.58L55.49 6.86L57.46 6.86L62.08 20.58L60.24 20.58L57.85 12.91Q57.50 11.76 57.15 10.62Q56.81 9.48 56.50 8.28L56.50 8.28L56.41 8.28Q56.08 9.48 55.74 10.62Q55.41 11.76 55.05 12.91L55.05 12.91L52.65 20.58ZM59.59 16.40L53.29 16.40L53.29 15.00L59.59 15.00L59.59 16.40ZM66.62 20.58L64.88 20.58L64.88 6.86L69.02 6.86Q70.55 6.86 71.69 7.25Q72.83 7.63 73.47 8.51Q74.11 9.39 74.11 10.90L74.11 10.90Q74.11 12.34 73.47 13.27Q72.83 14.20 71.68 14.67Q70.53 15.14 69.02 15.14L69.02 15.14L66.62 15.14L66.62 20.58ZM66.62 8.26L66.62 13.72L68.81 13.72Q70.61 13.72 71.48 13.03Q72.35 12.34 72.35 10.90L72.35 10.90Q72.35 9.41 71.47 8.84Q70.59 8.26 68.81 8.26L68.81 8.26L66.62 8.26ZM82.45 20.58L80.70 20.58L80.70 15.69L76.09 6.86L77.93 6.86L80.01 10.94Q80.40 11.71 80.78 12.51Q81.16 13.30 81.57 14.14L81.57 14.14L81.66 14.14Q82.08 13.30 82.47 12.51Q82.87 11.71 83.27 10.92L83.27 10.92L85.26 6.86L87.05 6.86L82.45 15.69L82.45 20.58ZM104.83 20.58L102.70 20.58L100.61 6.84L102.57 6.84L103.58 15.46Q103.64 16.02 103.69 16.49Q103.75 16.96 103.79 17.45Q103.83 17.95 103.85 18.64L103.85 18.64L103.91 18.64Q104.04 17.95 104.14 17.45Q104.25 16.96 104.35 16.50Q104.46 16.04 104.58 15.48L104.58 15.48L105.92 10.37L107.59 10.37L108.89 15.48Q109.04 16.04 109.14 16.50Q109.25 16.96 109.34 17.45Q109.43 17.95 109.56 18.64L109.56 18.64L109.64 18.64Q109.69 17.95 109.72 17.45Q109.75 16.96 109.79 16.50Q109.83 16.04 109.89 15.48L109.89 15.48L110.86 6.84L112.74 6.84L110.73 20.58L108.56 20.58L107.22 15.06Q107.07 14.43 106.95 13.83Q106.82 13.22 106.72 12.59L106.72 12.59L106.65 12.59Q106.55 13.22 106.44 13.83Q106.34 14.43 106.17 15.06L106.17 15.06L104.83 20.58ZM123.51 20.58L114.94 20.58L114.94 19.10L118.34 19.10L118.34 8.32L114.94 8.32L114.94 6.86L123.51 6.86L123.51 8.32L120.10 8.32L120.10 19.10L123.51 19.10L123.51 20.58ZM132.65 20.58L130.89 20.58L130.89 8.32L126.38 8.32L126.38 6.86L137.17 6.86L137.17 8.32L132.65 8.32L132.65 20.58ZM141.46 20.58L139.70 20.58L139.70 6.86L141.46 6.86L141.46 12.61L147.19 12.61L147.19 6.86L148.95 6.86L148.95 20.58L147.19 20.58L147.19 14.12L141.46 14.12L141.46 20.58ZM156.87 20.83L156.87 20.83Q155.33 20.83 154.13 19.98Q152.94 19.12 152.27 17.52Q151.60 15.92 151.60 13.66L151.60 13.66Q151.60 11.44 152.27 9.86Q152.94 8.28 154.13 7.45Q155.33 6.61 156.87 6.61L156.87 6.61Q158.42 6.61 159.61 7.45Q160.81 8.28 161.47 9.86Q162.14 11.44 162.14 13.66L162.14 13.66Q162.14 15.92 161.47 17.52Q160.81 19.12 159.61 19.98Q158.42 20.83 156.87 20.83ZM156.87 19.31L156.87 19.31Q157.92 19.31 158.70 18.63Q159.49 17.95 159.92 16.68Q160.35 15.42 160.35 13.66L160.35 13.66Q160.35 11.92 159.92 10.69Q159.49 9.45 158.70 8.80Q157.92 8.14 156.87 8.14L156.87 8.14Q155.83 8.14 155.04 8.80Q154.26 9.45 153.83 10.69Q153.40 11.92 153.40 13.66L153.40 13.66Q153.40 15.42 153.83 16.68Q154.26 17.95 155.04 18.63Q155.83 19.31 156.87 19.31ZM169.44 20.83L169.44 20.83Q168.44 20.83 167.59 20.53Q166.75 20.23 166.12 19.59Q165.49 18.95 165.15 17.90Q164.80 16.86 164.80 15.39L164.80 15.39L164.80 6.86L166.56 6.86L166.56 15.44Q166.56 16.86 166.93 17.71Q167.31 18.55 167.97 18.93Q168.63 19.31 169.44 19.31L169.44 19.31Q170.28 19.31 170.94 18.93Q171.60 18.55 171.97 17.71Q172.35 16.86 172.35 15.44L172.35 15.44L172.35 6.86L174.05 6.86L174.05 15.39Q174.05 16.86 173.70 17.90Q173.36 18.95 172.74 19.59Q172.12 20.23 171.28 20.53Q170.45 20.83 169.44 20.83ZM182.85 20.58L181.09 20.58L181.09 8.32L176.58 8.32L176.58 6.86L187.37 6.86L187.37 8.32L182.85 8.32L182.85 20.58ZM207.07 20.58L202.87 20.58L202.87 6.86L206.76 6.86Q208.16 6.86 209.22 7.20Q210.27 7.53 210.87 8.26Q211.46 8.99 211.46 10.21L211.46 10.21Q211.46 11.23 210.88 12.06Q210.29 12.88 209.06 13.20L209.06 13.20L209.06 13.28Q210.57 13.51 211.40 14.33Q212.24 15.14 212.24 16.57L212.24 16.57Q212.24 17.90 211.59 18.80Q210.94 19.70 209.78 20.14Q208.62 20.58 207.07 20.58L207.07 20.58ZM204.60 8.32L204.60 12.63L206.47 12.63Q208.22 12.63 208.99 12.07Q209.75 11.50 209.75 10.35L209.75 10.35Q209.75 9.25 208.94 8.78Q208.14 8.32 206.55 8.32L206.55 8.32L204.60 8.32ZM204.60 14.10L204.60 19.12L206.82 19.12Q208.58 19.12 209.55 18.50Q210.52 17.88 210.52 16.48L210.52 16.48Q210.52 15.21 209.57 14.65Q208.62 14.10 206.82 14.10L206.82 14.10L204.60 14.10ZM215.79 20.58L214.02 20.58L218.64 6.86L220.61 6.86L225.23 20.58L223.39 20.58L221.00 12.91Q220.65 11.76 220.30 10.62Q219.96 9.48 219.64 8.28L219.64 8.28L219.56 8.28Q219.22 9.48 218.89 10.62Q218.56 11.76 218.20 12.91L218.20 12.91L215.79 20.58ZM222.74 16.40L216.44 16.40L216.44 15.00L222.74 15.00L222.74 16.40ZM229.72 20.58L227.99 20.58L227.99 6.86L232.26 6.86Q233.66 6.86 234.73 7.23Q235.81 7.59 236.43 8.44Q237.05 9.29 237.05 10.71L237.05 10.71Q237.05 12.09 236.43 12.99Q235.81 13.89 234.73 14.34Q233.66 14.79 232.26 14.79L232.26 14.79L229.72 14.79L229.72 20.58ZM229.72 8.26L229.72 13.37L232.00 13.37Q233.62 13.37 234.46 12.71Q235.31 12.05 235.31 10.71L235.31 10.71Q235.31 9.37 234.46 8.82Q233.62 8.26 232.00 8.26L232.00 8.26L229.72 8.26ZM235.48 20.58L231.90 14.31L233.28 13.39L237.46 20.58L235.48 20.58ZM242.27 20.58L240.54 20.58L240.54 6.86L244.81 6.86Q246.21 6.86 247.28 7.23Q248.36 7.59 248.98 8.44Q249.60 9.29 249.60 10.71L249.60 10.71Q249.60 12.09 248.98 12.99Q248.36 13.89 247.28 14.34Q246.21 14.79 244.81 14.79L244.81 14.79L242.27 14.79L242.27 20.58ZM242.27 8.26L242.27 13.37L244.55 13.37Q246.17 13.37 247.01 12.71Q247.86 12.05 247.86 10.71L247.86 10.71Q247.86 9.37 247.01 8.82Q246.17 8.26 244.55 8.26L244.55 8.26L242.27 8.26ZM248.03 20.58L244.45 14.31L245.83 13.39L250.01 20.58L248.03 20.58ZM261.56 20.58L252.98 20.58L252.98 19.10L256.39 19.10L256.39 8.32L252.98 8.32L252.98 6.86L261.56 6.86L261.56 8.32L258.15 8.32L258.15 19.10L261.56 19.10L261.56 20.58ZM274.63 20.58L265.93 20.58L265.93 6.86L274.42 6.86L274.42 8.32L267.69 8.32L267.69 12.63L273.38 12.63L273.38 14.12L267.69 14.12L267.69 19.10L274.63 19.10L274.63 20.58ZM279.92 20.58L278.19 20.58L278.19 6.86L282.45 6.86Q283.86 6.86 284.93 7.23Q286.01 7.59 286.63 8.44Q287.24 9.29 287.24 10.71L287.24 10.71Q287.24 12.09 286.63 12.99Q286.01 13.89 284.93 14.34Q283.86 14.79 282.45 14.79L282.45 14.79L279.92 14.79L279.92 20.58ZM279.92 8.26L279.92 13.37L282.20 13.37Q283.81 13.37 284.66 12.71Q285.51 12.05 285.51 10.71L285.51 10.71Q285.51 9.37 284.66 8.82Q283.81 8.26 282.20 8.26L282.20 8.26L279.92 8.26ZM285.68 20.58L282.10 14.31L283.48 13.39L287.66 20.58L285.68 20.58ZM295.03 20.83L295.03 20.83Q293.52 20.83 292.25 20.28Q290.99 19.72 290.05 18.80L290.05 18.80L291.09 17.59Q291.87 18.36 292.90 18.84Q293.94 19.31 295.11 19.31L295.11 19.31Q296.53 19.31 297.32 18.70Q298.10 18.09 298.10 17.13L298.10 17.13Q298.10 16.40 297.78 15.96Q297.45 15.52 296.90 15.23Q296.34 14.93 295.63 14.64L295.63 14.64L293.67 13.78Q292.98 13.49 292.30 13.05Q291.62 12.61 291.16 11.93Q290.70 11.25 290.70 10.25L290.70 10.25Q290.70 9.20 291.27 8.38Q291.85 7.55 292.87 7.08Q293.90 6.61 295.19 6.61L295.19 6.61Q296.49 6.61 297.58 7.08Q298.67 7.55 299.42 8.30L299.42 8.30L298.50 9.43Q297.83 8.83 297.01 8.48Q296.20 8.14 295.13 8.14L295.13 8.14Q293.94 8.14 293.21 8.67Q292.47 9.20 292.47 10.14L292.47 10.14Q292.47 10.79 292.84 11.21Q293.21 11.63 293.77 11.90Q294.34 12.17 294.92 12.42L294.92 12.42L296.85 13.26Q297.70 13.60 298.39 14.07Q299.08 14.54 299.48 15.23Q299.88 15.92 299.88 16.92L299.88 16.92Q299.88 18.01 299.29 18.90Q298.71 19.79 297.62 20.31Q296.53 20.83 295.03 20.83Z" transform="translate(0, 0)"></path></g></svg> <svg xmlns="http://www.w3.org/2000/svg" y="332.8073169962083" viewBox="3.140000104904175 14.010000228881836 395 38.06999969482422" x="90" height="38.06999969482422" width="395" style="overflow: visible;"><g fill="#188fff" style=""><path d="M15.69 52.08L15.69 52.08Q12.34 52.08 9.49 50.51Q6.64 48.94 4.89 45.96Q3.14 42.98 3.14 38.80L3.14 38.80Q3.14 34.51 4.89 31.53Q6.64 28.55 9.49 26.98Q12.34 25.41 15.69 25.41L15.69 25.41Q19.03 25.41 21.88 26.98Q24.73 28.55 26.49 31.53Q28.24 34.51 28.24 38.80L28.24 38.80Q28.24 42.98 26.49 45.96Q24.73 48.94 21.88 50.51Q19.03 52.08 15.69 52.08ZM15.69 48.53L15.69 48.53Q18.14 48.53 19.98 47.30Q21.81 46.07 22.80 43.87Q23.79 41.68 23.79 38.80L23.79 38.80Q23.79 35.87 22.80 33.65Q21.81 31.43 19.98 30.20Q18.14 28.97 15.69 28.97L15.69 28.97Q13.23 28.97 11.43 30.20Q9.62 31.43 8.60 33.65Q7.58 35.87 7.58 38.80L7.58 38.80Q7.58 41.68 8.60 43.87Q9.62 46.07 11.43 47.30Q13.23 48.53 15.69 48.53ZM49.47 52.08L49.47 52.08Q45.49 52.08 42.33 50.51Q39.17 48.94 37.36 45.96Q35.56 42.98 35.56 38.80L35.56 38.80Q35.56 34.51 37.49 31.53Q39.43 28.55 42.64 26.98Q45.86 25.41 49.73 25.41L49.73 25.41Q52.87 25.41 55.14 26.51Q57.42 27.61 58.98 29.13L58.98 29.13L56.84 31.90Q55.27 30.54 53.60 29.75Q51.92 28.97 49.89 28.97L49.89 28.97Q46.96 28.97 44.71 30.20Q42.46 31.43 41.23 33.65Q40.00 35.87 40.00 38.80L40.00 38.80Q40.00 41.68 41.21 43.87Q42.41 46.07 44.63 47.30Q46.85 48.53 49.78 48.53L49.78 48.53Q52.13 48.53 54.10 47.58Q56.06 46.64 57.62 45.34L57.62 45.34L59.56 48.11Q57.47 49.99 54.88 51.04Q52.29 52.08 49.47 52.08ZM80.01 52.08L80.01 52.08Q76.19 52.08 73.08 50.51Q69.97 48.94 68.14 45.94Q66.30 42.93 66.30 38.70L66.30 38.70Q66.30 34.56 68.14 31.58Q69.97 28.60 72.92 27.01Q75.87 25.41 79.27 25.41L79.27 25.41Q82.93 25.41 85.52 26.90Q88.11 28.39 89.50 31.06Q90.88 33.73 90.88 37.34L90.88 37.34Q90.88 38.07 90.83 38.75Q90.78 39.43 90.67 39.95L90.67 39.95L69.18 39.95L69.18 36.60L88.11 36.60L87.01 37.81Q87.01 33.31 84.95 31.06Q82.88 28.81 79.38 28.81L79.38 28.81Q77.02 28.81 75.01 29.96Q73.00 31.11 71.80 33.31Q70.59 35.51 70.59 38.70L70.59 38.70Q70.59 41.99 71.90 44.19Q73.21 46.38 75.46 47.51Q77.70 48.63 80.53 48.63L80.53 48.63Q82.83 48.63 84.69 47.98Q86.54 47.32 88.27 46.23L88.27 46.23L89.84 49.05Q87.95 50.30 85.52 51.19Q83.09 52.08 80.01 52.08ZM106.99 52.08L106.99 52.08Q104.63 52.08 102.65 51.22Q100.66 50.36 99.51 48.74Q98.36 47.11 98.36 44.87L98.36 44.87Q98.36 40.58 102.65 38.36Q106.94 36.13 116.77 35.35L116.77 35.35Q116.71 33.62 116.06 32.16Q115.41 30.69 113.94 29.83Q112.48 28.97 110.02 28.97L110.02 28.97Q108.40 28.97 106.80 29.41Q105.21 29.86 103.77 30.56Q102.33 31.27 101.13 32.00L101.13 32.00L99.46 29.07Q100.71 28.24 102.52 27.37Q104.32 26.51 106.41 25.96Q108.50 25.41 110.75 25.41L110.75 25.41Q114.26 25.41 116.53 26.72Q118.81 28.03 119.93 30.35Q121.05 32.68 121.05 35.87L121.05 35.87L121.05 51.45L117.55 51.45L117.18 48.00L117.03 48.00Q114.94 49.68 112.32 50.88Q109.71 52.08 106.99 52.08ZM108.14 48.63L108.14 48.63Q110.33 48.63 112.48 47.64Q114.62 46.64 116.77 44.87L116.77 44.87L116.77 38.17Q111.33 38.64 108.22 39.48Q105.10 40.32 103.82 41.60Q102.54 42.88 102.54 44.55L102.54 44.55Q102.54 45.96 103.33 46.88Q104.11 47.79 105.39 48.21Q106.67 48.63 108.14 48.63ZM134.65 51.45L130.36 51.45L130.36 26.04L133.92 26.04L134.28 30.38L134.49 30.38Q136.48 28.24 138.78 26.83Q141.08 25.41 144.06 25.41L144.06 25.41Q148.56 25.41 150.70 28.03Q152.85 30.64 152.85 35.66L152.85 35.66L152.85 51.45L148.56 51.45L148.56 36.24Q148.56 32.63 147.20 30.88Q145.84 29.13 142.70 29.13L142.70 29.13Q140.45 29.13 138.68 30.28Q136.90 31.43 134.65 33.73L134.65 33.73L134.65 51.45ZM166.02 51.45L161.74 51.45L161.74 14.22L166.02 14.22L166.02 24.37L165.76 30.38L165.92 30.38Q167.85 28.29 170.15 26.85Q172.46 25.41 175.44 25.41L175.44 25.41Q179.93 25.41 182.08 28.03Q184.22 30.64 184.22 35.66L184.22 35.66L184.22 51.45L179.93 51.45L179.93 36.24Q179.93 32.63 178.57 30.88Q177.21 29.13 174.08 29.13L174.08 29.13Q171.83 29.13 170.05 30.28Q168.27 31.43 166.02 33.73L166.02 33.73L166.02 51.45ZM205.50 52.08L205.50 52.08Q201.69 52.08 198.57 50.51Q195.46 48.94 193.63 45.94Q191.80 42.93 191.80 38.70L191.80 38.70Q191.80 34.56 193.63 31.58Q195.46 28.60 198.42 27.01Q201.37 25.41 204.77 25.41L204.77 25.41Q208.43 25.41 211.02 26.90Q213.61 28.39 214.99 31.06Q216.38 33.73 216.38 37.34L216.38 37.34Q216.38 38.07 216.33 38.75Q216.28 39.43 216.17 39.95L216.17 39.95L194.68 39.95L194.68 36.60L213.61 36.60L212.51 37.81Q212.51 33.31 210.45 31.06Q208.38 28.81 204.88 28.81L204.88 28.81Q202.52 28.81 200.51 29.96Q198.50 31.11 197.29 33.31Q196.09 35.51 196.09 38.70L196.09 38.70Q196.09 41.99 197.40 44.19Q198.71 46.38 200.95 47.51Q203.20 48.63 206.03 48.63L206.03 48.63Q208.33 48.63 210.18 47.98Q212.04 47.32 213.77 46.23L213.77 46.23L215.33 49.05Q213.45 50.30 211.02 51.19Q208.59 52.08 205.50 52.08ZM232.49 52.08L232.49 52.08Q230.13 52.08 228.15 51.22Q226.16 50.36 225.01 48.74Q223.86 47.11 223.86 44.87L223.86 44.87Q223.86 40.58 228.15 38.36Q232.43 36.13 242.26 35.35L242.26 35.35Q242.21 33.62 241.56 32.16Q240.90 30.69 239.44 29.83Q237.98 28.97 235.52 28.97L235.52 28.97Q233.90 28.97 232.30 29.41Q230.71 29.86 229.27 30.56Q227.83 31.27 226.63 32.00L226.63 32.00L224.96 29.07Q226.21 28.24 228.01 27.37Q229.82 26.51 231.91 25.96Q234.00 25.41 236.25 25.41L236.25 25.41Q239.75 25.41 242.03 26.72Q244.30 28.03 245.43 30.35Q246.55 32.68 246.55 35.87L246.55 35.87L246.55 51.45L243.05 51.45L242.68 48.00L242.53 48.00Q240.43 49.68 237.82 50.88Q235.20 52.08 232.49 52.08ZM233.64 48.63L233.64 48.63Q235.83 48.63 237.98 47.64Q240.12 46.64 242.26 44.87L242.26 44.87L242.26 38.17Q236.83 38.64 233.71 39.48Q230.60 40.32 229.32 41.60Q228.04 42.88 228.04 44.55L228.04 44.55Q228.04 45.96 228.83 46.88Q229.61 47.79 230.89 48.21Q232.17 48.63 233.64 48.63ZM262.92 51.45L258.63 51.45L258.63 26.04L262.19 26.04L262.55 32.05L262.71 32.05Q264.70 28.97 267.63 27.19Q270.55 25.41 274.06 25.41L274.06 25.41Q275.47 25.41 276.70 25.65Q277.93 25.88 279.08 26.46L279.08 26.46L278.08 30.17Q276.78 29.70 275.83 29.49Q274.89 29.28 273.38 29.28L273.38 29.28Q270.50 29.28 267.86 30.93Q265.22 32.58 262.92 36.55L262.92 36.55L262.92 51.45ZM302.97 52.08L302.97 52.08Q299.26 52.08 297.12 50.75Q294.97 49.41 294.06 47.06Q293.14 44.71 293.14 41.57L293.14 41.57L293.14 29.54L285.98 29.54L285.98 26.30L293.30 26.04L293.88 17.88L297.43 17.88L297.43 26.04L309.93 26.04L309.93 29.54L297.43 29.54L297.43 41.62Q297.43 43.87 298.01 45.44Q298.58 47.01 299.99 47.79Q301.41 48.58 303.86 48.58L303.86 48.58Q305.69 48.58 307.16 48.26Q308.62 47.95 309.98 47.43L309.98 47.43L310.92 50.57Q309.20 51.19 307.29 51.64Q305.38 52.08 302.97 52.08ZM329.43 52.08L329.43 52.08Q327.71 52.08 326.45 50.85Q325.20 49.62 325.20 47.69L325.20 47.69Q325.20 45.70 326.45 44.47Q327.71 43.24 329.43 43.24L329.43 43.24Q331.21 43.24 332.44 44.47Q333.67 45.70 333.67 47.69L333.67 47.69Q333.67 49.62 332.44 50.85Q331.21 52.08 329.43 52.08ZM357.98 52.08L357.98 52.08Q355.63 52.08 353.64 51.22Q351.66 50.36 350.51 48.74Q349.36 47.11 349.36 44.87L349.36 44.87Q349.36 40.58 353.64 38.36Q357.93 36.13 367.76 35.35L367.76 35.35Q367.71 33.62 367.06 32.16Q366.40 30.69 364.94 29.83Q363.47 28.97 361.02 28.97L361.02 28.97Q359.40 28.97 357.80 29.41Q356.21 29.86 354.77 30.56Q353.33 31.27 352.13 32.00L352.13 32.00L350.45 29.07Q351.71 28.24 353.51 27.37Q355.32 26.51 357.41 25.96Q359.50 25.41 361.75 25.41L361.75 25.41Q365.25 25.41 367.53 26.72Q369.80 28.03 370.93 30.35Q372.05 32.68 372.05 35.87L372.05 35.87L372.05 51.45L368.55 51.45L368.18 48.00L368.02 48.00Q365.93 49.68 363.32 50.88Q360.70 52.08 357.98 52.08ZM359.13 48.63L359.13 48.63Q361.33 48.63 363.47 47.64Q365.62 46.64 367.76 44.87L367.76 44.87L367.76 38.17Q362.32 38.64 359.21 39.48Q356.10 40.32 354.82 41.60Q353.54 42.88 353.54 44.55L353.54 44.55Q353.54 45.96 354.32 46.88Q355.11 47.79 356.39 48.21Q357.67 48.63 359.13 48.63ZM397.31 51.45L393.02 51.45L393.02 29.54L381.20 29.54L381.20 26.04L397.31 26.04L397.31 51.45ZM394.69 20.71L394.69 20.71Q393.23 20.71 392.23 19.79Q391.24 18.88 391.24 17.36L391.24 17.36Q391.24 15.84 392.23 14.93Q393.23 14.01 394.69 14.01L394.69 14.01Q396.16 14.01 397.15 14.93Q398.14 15.84 398.14 17.36L398.14 17.36Q398.14 18.88 397.15 19.79Q396.16 20.71 394.69 20.71Z" transform="translate(0, 0)"></path></g></svg></svg>